<?xml version="1.0" encoding="UTF-8" standalone="no"?>
<!DOCTYPE svg PUBLIC "-//W3C//DTD SVG 1.1//EN" "http://www.w3.org/Graphics/SVG/1.1/DTD/svg11.dtd">
<svg width="100%" height="100%" viewBox="0 0 4881 4881" version="1.1" xmlns="http://www.w3.org/2000/svg" xmlns:xlink="http://www.w3.org/1999/xlink" xml:space="preserve" xmlns:serif="http://www.serif.com/" style="fill-rule:evenodd;clip-rule:evenodd;stroke-linejoin:round;stroke-miterlimit:2;">
    <g transform="matrix(1.97532,0,0,1.97532,-2360.06,-1761.05)">
        <path d="M2953.81,2439.02L2955.78,2256.83L3183.1,2247.58L3177.68,2427.33L2953.81,2439.02ZM2964.72,2130.47L2740.2,2130.6L2726.43,2026.81L2852.93,1919.12L2719.2,2007.86L2889.51,1878.01L2893.73,1890.55L2924.79,1875.28L2964.72,2130.47ZM3273.41,2518.71L3283.67,2480.76C3283.45,2459.08 2951.25,2467.1 3270.13,2450.35L3271.5,2408.76L3197,2419.28L3205.02,2256.84L3275.26,2254.97L3275.36,2204.29L3182.81,2148.47L2740.85,2147.49L2977.45,2138.29L2959.17,2012.62L3114.7,1885.59L3126.87,1943.05L3024.96,2055.54L3130.73,1961.25L3167.91,2136.79L3127.99,1871.1L2662.99,1843.81L3109.36,1853.13L3070.58,1822.7L2575.38,1807.45L2545.13,1842.35L2565.79,1797.14L3067.33,1804.16L3070.49,1672.09L2500.38,1611.85L2490.51,2046.5L2480.65,2481.14L2302.24,2465.93L2319,1649.8L2112.37,1702.05L2307.11,1788.78L2302.16,2097.54L2048.61,1693.53C2042.7,1683.28 2033.98,1675.11 2023.68,1671.59C2017.03,1669.32 2009.72,1668.98 2002.08,1671.27L1782.92,1737.02L2026.88,1652.71L2091.63,1689.08L2500.16,1582.31L3085.71,1658.39L3084.64,1806.72C3116.56,1840.31 3139.14,1834.01 3147.36,1900.9L3167.47,2031.36L3172.88,2007.7L3218.93,2008.86L3218.24,2126.43L3195.12,2130.52C3223.31,2151.36 3259.23,2169.67 3290.74,2191.18L3287.78,2450.62C3321.14,2484.46 3307.97,2483.02 3291.13,2531.33C3216.27,2546.45 3261.79,2577.1 3201.8,2607.12C3139.33,2638.39 2851.9,2657.12 2756.92,2668.08C2695.99,2675.1 2634.76,2671.88 2558.91,2659.85L1552.1,2484.84C1578.79,2479.81 1657.6,2485.04 1741.66,2495.36C1802.1,2502.78 1621.22,2457.49 1666.34,2460.8C1692.33,2462.71 1832.44,2479.61 1843.5,2477.52C1841.48,2472.69 1758.77,2455.26 1757.27,2450.34C1755.06,2443.06 1887.63,2469.09 1885.83,2459.42L1810.09,2443.86C1776.3,2436.92 1769.62,2411.89 1772.31,2382.01L1796.73,2112.02L1552.1,1811.93L2002.45,1681.88C2014.64,1678.36 2022.44,1676.83 2033.68,1695.4L2289.49,2117.6L2105.11,2117.6L2108.99,1899.1L2093.34,2117.6L1939.31,2117.6L1942.74,1899.1L1927.13,2117.6L1825.86,2117.6L1833.7,1899.1L1795.77,2377.74L1871.57,2402.03L1795.29,2395.24C1796.27,2423.59 1809.27,2428.59 1885.23,2441.98C1883.56,2273.82 2033.34,2259.35 2035.14,2475.38L2537.08,2557.08C2555.34,2288.67 2723.82,2221.76 2772.04,2576.68L3273.41,2518.71ZM1956,2371.87C1971.41,2371.87 1983.9,2402.47 1983.9,2440.2C1983.9,2477.94 1971.41,2508.54 1956,2508.54C1940.59,2508.54 1928.1,2477.94 1928.1,2440.2C1928.1,2402.47 1940.59,2371.87 1956,2371.87ZM2642.87,2421.57C2665.67,2421.57 2684.16,2466.87 2684.16,2522.73C2684.16,2578.6 2665.67,2623.9 2642.87,2623.9C2620.06,2623.9 2601.57,2578.6 2601.57,2522.73C2601.57,2466.87 2620.06,2421.57 2642.87,2421.57ZM3247.44,2275.79C3262.46,2276.9 3273.13,2305.93 3271.29,2340.63C3269.45,2375.32 3255.79,2402.53 3240.78,2401.4C3225.76,2400.28 3215.08,2371.24 3216.92,2336.57C3218.76,2301.87 3232.42,2274.66 3247.44,2275.79ZM2340.11,2018.68L2463.62,2018.68L2466.85,1821.02L2344.22,1833.85L2340.11,2018.68ZM2463.16,2046.5L2339.5,2046.5L2330.64,2446.52L2456.5,2454.83L2463.16,2046.5ZM2919.49,2422.52L2805.89,2422.52L2805.89,2262.79L2919.49,2262.79L2919.49,2422.52ZM2862.05,2282.25C2880.19,2282.25 2894.89,2310.85 2894.89,2346.15C2894.89,2381.43 2880.19,2410.03 2862.05,2410.03C2843.93,2410.03 2829.22,2381.43 2829.22,2346.15C2829.22,2310.85 2843.93,2282.25 2862.05,2282.25ZM2841.42,1873.58L2713.08,1959.31L2701.3,1864.57L2841.42,1873.58ZM2707.06,2131.91L2548.33,2127.31L2557.39,1875.17L2668.49,1864.17L2707.06,2131.91Z" style="fill:rgb(8,6,5);"/>
    </g>
</svg>
